<mxfile host="app.diagrams.net" modified="2023-09-27T12:03:18.092Z" agent="Mozilla/5.0 (Windows NT 10.0; Win64; x64) AppleWebKit/537.36 (KHTML, like Gecko) Chrome/117.0.0.0 Safari/537.36 Edg/117.0.2045.31" etag="hvPwNcEsoYDtDB_-7aJJ" version="21.8.2" type="github">
  <diagram name="Страница — 1" id="84O2Gyyiwd_BVJKpsNnK">
    <mxGraphModel dx="1913" dy="933" grid="1" gridSize="10" guides="1" tooltips="1" connect="1" arrows="1" fold="1" page="1" pageScale="1" pageWidth="827" pageHeight="1169" math="0" shadow="0">
      <root>
        <mxCell id="0" />
        <mxCell id="1" parent="0" />
        <mxCell id="yk-6UnyTxs8F06T7Ii9H-1" value="Assets" style="rounded=0;whiteSpace=wrap;html=1;" vertex="1" parent="1">
          <mxGeometry x="200" y="160" width="160" height="80" as="geometry" />
        </mxCell>
        <mxCell id="yk-6UnyTxs8F06T7Ii9H-2" value="Events&lt;br&gt;" style="rounded=0;whiteSpace=wrap;html=1;" vertex="1" parent="1">
          <mxGeometry y="280" width="160" height="80" as="geometry" />
        </mxCell>
        <mxCell id="yk-6UnyTxs8F06T7Ii9H-3" value="Objects" style="rounded=0;whiteSpace=wrap;html=1;" vertex="1" parent="1">
          <mxGeometry x="200" y="280" width="160" height="80" as="geometry" />
        </mxCell>
        <mxCell id="yk-6UnyTxs8F06T7Ii9H-4" value="Scenes" style="rounded=0;whiteSpace=wrap;html=1;" vertex="1" parent="1">
          <mxGeometry x="400" y="280" width="160" height="80" as="geometry" />
        </mxCell>
        <mxCell id="yk-6UnyTxs8F06T7Ii9H-5" value="Плагины" style="rounded=0;whiteSpace=wrap;html=1;" vertex="1" parent="1">
          <mxGeometry x="600" y="280" width="160" height="80" as="geometry" />
        </mxCell>
      </root>
    </mxGraphModel>
  </diagram>
</mxfile>
